{
  "accessors": [
    {
      "bufferView": 2,
      "componentType": 5126,
      "count": 20846,
      "max": [
        26.197742462158203,
        -5.3517413139343262,
        3.2048203945159912
      ],
      "min": [
        6.2516684532165527,
        -47.902233123779297,
        -3.2048118114471436
      ],
      "type": "VEC3"
    },
    {
      "bufferView": 2,
      "byteOffset": 250152,
      "componentType": 5126,
      "count": 20846,
      "max": [
        1,
        1,
        1
      ],
      "min": [
        -1,
        -1,
        -1
      ],
      "type": "VEC3"
    },
    {
      "bufferView": 1,
      "componentType": 5126,
      "count": 20846,
      "max": [
        0.98968231678009033,
        0.9869651198387146
      ],
      "min": [
        0.016625702381134033,
        0.012332642450928688
      ],
      "type": "VEC2"
    },
    {
      "bufferView": 0,
      "componentType": 5125,
      "count": 118560,
      "max": [
        20845
      ],
      "min": [
        0
      ],
      "type": "SCALAR"
    },
    {
      "bufferView": 2,
      "byteOffset": 500304,
      "componentType": 5126,
      "count": 20846,
      "max": [
        26.197759628295898,
        47.902229309082031,
        3.2048180103302002
      ],
      "min": [
        6.2516751289367676,
        5.3517379760742188,
        -3.2048139572143555
      ],
      "type": "VEC3"
    },
    {
      "bufferView": 2,
      "byteOffset": 750456,
      "componentType": 5126,
      "count": 20846,
      "max": [
        1,
        1,
        1
      ],
      "min": [
        -1,
        -1,
        -1
      ],
      "type": "VEC3"
    },
    {
      "bufferView": 1,
      "byteOffset": 166768,
      "componentType": 5126,
      "count": 20846,
      "max": [
        0.98968231678009033,
        0.9869651198387146
      ],
      "min": [
        0.016625702381134033,
        0.012332642450928688
      ],
      "type": "VEC2"
    },
    {
      "bufferView": 0,
      "byteOffset": 474240,
      "componentType": 5125,
      "count": 118560,
      "max": [
        20845
      ],
      "min": [
        0
      ],
      "type": "SCALAR"
    },
    {
      "bufferView": 2,
      "byteOffset": 1000608,
      "componentType": 5126,
      "count": 20846,
      "max": [
        -5.3517365455627441,
        3.204817533493042,
        26.197761535644531
      ],
      "min": [
        -47.9022216796875,
        -3.2048101425170898,
        6.2516756057739258
      ],
      "type": "VEC3"
    },
    {
      "bufferView": 2,
      "byteOffset": 1250760,
      "componentType": 5126,
      "count": 20846,
      "max": [
        1,
        1,
        1
      ],
      "min": [
        -1,
        -1,
        -1
      ],
      "type": "VEC3"
    },
    {
      "bufferView": 1,
      "byteOffset": 333536,
      "componentType": 5126,
      "count": 20846,
      "max": [
        0.98968231678009033,
        0.9869651198387146
      ],
      "min": [
        0.016625702381134033,
        0.012332642450928688
      ],
      "type": "VEC2"
    },
    {
      "bufferView": 0,
      "byteOffset": 948480,
      "componentType": 5125,
      "count": 118560,
      "max": [
        20845
      ],
      "min": [
        0
      ],
      "type": "SCALAR"
    },
    {
      "bufferView": 2,
      "byteOffset": 1500912,
      "componentType": 5126,
      "count": 1156,
      "max": [
        21.440248489379883,
        1.0183825492858887,
        21.440248489379883
      ],
      "min": [
        -21.440248489379883,
        -1.0183825492858887,
        -21.440248489379883
      ],
      "type": "VEC3"
    },
    {
      "bufferView": 2,
      "byteOffset": 1514784,
      "componentType": 5126,
      "count": 1156,
      "max": [
        0.99144458770751953,
        1,
        0.99144458770751953
      ],
      "min": [
        -0.99144458770751953,
        -0.99145740270614624,
        -0.99144458770751953
      ],
      "type": "VEC3"
    },
    {
      "bufferView": 1,
      "byteOffset": 500304,
      "componentType": 5126,
      "count": 1156,
      "max": [
        0.99872869253158569,
        0.99142700433731079
      ],
      "min": [
        0.0035581714473664761,
        0.36946895718574524
      ],
      "type": "VEC2"
    },
    {
      "bufferView": 0,
      "byteOffset": 1422720,
      "componentType": 5125,
      "count": 6144,
      "max": [
        1155
      ],
      "min": [
        0
      ],
      "type": "SCALAR"
    },
    {
      "bufferView": 2,
      "byteOffset": 1528656,
      "componentType": 5126,
      "count": 31661,
      "max": [
        25.646772384643555,
        3.9297192096710205,
        25.656749725341797
      ],
      "min": [
        -25.647926330566406,
        -4.3615689277648926,
        -25.656749725341797
      ],
      "type": "VEC3"
    },
    {
      "bufferView": 2,
      "byteOffset": 1908588,
      "componentType": 5126,
      "count": 31661,
      "max": [
        0.99994796514511108,
        1,
        0.99994939565658569
      ],
      "min": [
        -0.99962085485458374,
        -0.99999868869781494,
        -0.99989652633666992
      ],
      "type": "VEC3"
    },
    {
      "bufferView": 1,
      "byteOffset": 509552,
      "componentType": 5126,
      "count": 31661,
      "max": [
        0.99950003623962402,
        0.9992491602897644
      ],
      "min": [
        0.00050000002374872565,
        0.00050000002374872565
      ],
      "type": "VEC2"
    },
    {
      "bufferView": 0,
      "byteOffset": 1447296,
      "componentType": 5125,
      "count": 186624,
      "max": [
        31660
      ],
      "min": [
        0
      ],
      "type": "SCALAR"
    },
    {
      "bufferView": 2,
      "byteOffset": 2288520,
      "componentType": 5126,
      "count": 14269,
      "max": [
        24.872623443603516,
        1.0243520736694336,
        24.854198455810547
      ],
      "min": [
        -24.875341415405273,
        -1.0243518352508545,
        -24.856678009033203
      ],
      "type": "VEC3"
    },
    {
      "bufferView": 2,
      "byteOffset": 2459748,
      "componentType": 5126,
      "count": 14269,
      "max": [
        0.99994057416915894,
        0.95129555463790894,
        0.99999797344207764
      ],
      "min": [
        -0.99996054172515869,
        -0.95605450868606567,
        -0.99999797344207764
      ],
      "type": "VEC3"
    },
    {
      "bufferView": 1,
      "byteOffset": 762840,
      "componentType": 5126,
      "count": 14269,
      "max": [
        1.0025880336761475,
        0.9919707179069519
      ],
      "min": [
        0.00059349549701437354,
        0.30870950222015381
      ],
      "type": "VEC2"
    },
    {
      "bufferView": 0,
      "byteOffset": 2193792,
      "componentType": 5125,
      "count": 78360,
      "max": [
        14268
      ],
      "min": [
        0
      ],
      "type": "SCALAR"
    },
    {
      "bufferView": 2,
      "byteOffset": 2630976,
      "componentType": 5126,
      "count": 20846,
      "max": [
        47.902225494384766,
        3.2048141956329346,
        -6.251671314239502
      ],
      "min": [
        5.3517379760742188,
        -3.2048170566558838,
        -26.19775390625
      ],
      "type": "VEC3"
    },
    {
      "bufferView": 2,
      "byteOffset": 2881128,
      "componentType": 5126,
      "count": 20846,
      "max": [
        1,
        1,
        1
      ],
      "min": [
        -1,
        -1,
        -1
      ],
      "type": "VEC3"
    },
    {
      "bufferView": 1,
      "byteOffset": 876992,
      "componentType": 5126,
      "count": 20846,
      "max": [
        0.98968231678009033,
        0.9869651198387146
      ],
      "min": [
        0.016625702381134033,
        0.012332642450928688
      ],
      "type": "VEC2"
    },
    {
      "bufferView": 0,
      "byteOffset": 2507232,
      "componentType": 5125,
      "count": 118560,
      "max": [
        20845
      ],
      "min": [
        0
      ],
      "type": "SCALAR"
    },
    {
      "bufferView": 2,
      "byteOffset": 3131280,
      "componentType": 5126,
      "count": 23736,
      "max": [
        25.014373779296875,
        1.1165539026260376,
        25.030780792236328
      ],
      "min": [
        -25.014377593994141,
        -1.1165536642074585,
        -25.030780792236328
      ],
      "type": "VEC3"
    },
    {
      "bufferView": 2,
      "byteOffset": 3416112,
      "componentType": 5126,
      "count": 23736,
      "max": [
        0.99977672100067139,
        0.99830508232116699,
        0.99998193979263306
      ],
      "min": [
        -0.99977672100067139,
        -0.99830508232116699,
        -0.99998193979263306
      ],
      "type": "VEC3"
    },
    {
      "bufferView": 1,
      "byteOffset": 1043760,
      "componentType": 5126,
      "count": 23736,
      "max": [
        1,
        1
      ],
      "min": [
        0,
        0
      ],
      "type": "VEC2"
    },
    {
      "bufferView": 0,
      "byteOffset": 2981472,
      "componentType": 5125,
      "count": 119232,
      "max": [
        23735
      ],
      "min": [
        0
      ],
      "type": "SCALAR"
    },
    {
      "bufferView": 2,
      "byteOffset": 3700944,
      "componentType": 5126,
      "count": 19093,
      "max": [
        24.924930572509766,
        24.924793243408203,
        0.95197159051895142
      ],
      "min": [
        -24.922857284545898,
        -24.923269271850586,
        -0.95197159051895142
      ],
      "type": "VEC3"
    },
    {
      "bufferView": 2,
      "byteOffset": 3930060,
      "componentType": 5126,
      "count": 19093,
      "max": [
        0.99996399879455566,
        1,
        0.99876701831817627
      ],
      "min": [
        -0.99999886751174927,
        -1,
        -1
      ],
      "type": "VEC3"
    },
    {
      "bufferView": 1,
      "byteOffset": 1233648,
      "componentType": 5126,
      "count": 19093,
      "max": [
        0.99982476234436035,
        0.99076664447784424
      ],
      "min": [
        0.0038101410027593374,
        0.82971280813217163
      ],
      "type": "VEC2"
    },
    {
      "bufferView": 0,
      "byteOffset": 3458400,
      "componentType": 5125,
      "count": 78810,
      "max": [
        19092
      ],
      "min": [
        0
      ],
      "type": "SCALAR"
    },
    {
      "bufferView": 2,
      "byteOffset": 4159176,
      "componentType": 5126,
      "count": 1847,
      "max": [
        24.75,
        2.6752827167510986,
        24.750001907348633
      ],
      "min": [
        -24.75,
        -2.6752827167510986,
        -24.750001907348633
      ],
      "type": "VEC3"
    },
    {
      "bufferView": 2,
      "byteOffset": 4181340,
      "componentType": 5126,
      "count": 1847,
      "max": [
        1,
        1,
        1
      ],
      "min": [
        -1,
        -1,
        -1
      ],
      "type": "VEC3"
    },
    {
      "bufferView": 1,
      "byteOffset": 1386392,
      "componentType": 5126,
      "count": 1847,
      "max": [
        0.99830049276351929,
        0.99076807498931885
      ],
      "min": [
        0,
        0.13028453290462494
      ],
      "type": "VEC2"
    },
    {
      "bufferView": 0,
      "byteOffset": 3773640,
      "componentType": 5125,
      "count": 6912,
      "max": [
        1846
      ],
      "min": [
        0
      ],
      "type": "SCALAR"
    }
  ],
  "asset": {
    "extras": {
      "author": "V.Sarazhin (https://sketchfab.com/sarazhin)",
      "license": "CC-BY-4.0 (http://creativecommons.org/licenses/by/4.0/)",
      "source": "https://sketchfab.com/3d-models/stool-65865d7141e74f298e2d88071e866b7e",
      "title": "Stool"
    },
    "generator": "Sketchfab-9.96.0",
    "version": "2.0"
  },
  "bufferViews": [
    {
      "buffer": 0,
      "byteLength": 3801288,
      "byteOffset": 0,
      "name": "floatBufferViews",
      "target": 34963
    },
    {
      "buffer": 0,
      "byteLength": 1401168,
      "byteOffset": 3801288,
      "byteStride": 8,
      "name": "floatBufferViews",
      "target": 34962
    },
    {
      "buffer": 0,
      "byteLength": 4203504,
      "byteOffset": 5202456,
      "byteStride": 12,
      "name": "floatBufferViews",
      "target": 34962
    }
  ],
  "buffers": [
    {
      "byteLength": 9405960,
      "uri": "scene.bin"
    }
  ],
  "nodes": [
    {
      "children": [
        1
      ],
      "name": "RootNode (gltf orientation matrix)",
      "rotation": [
        -0.70710678118654746,
        -0,
        -0,
        0.70710678118654757
      ]
    },
    {
      "children": [
        2
      ],
      "matrix": [
        1,
        2.832769343193999e-16,
        -1.6081226229577292e-16,
        0,
        -2.832769343193999e-16,
        1,
        1.6081226229577292e-16,
        0,
        1.6081226229577292e-16,
        -1.6081226229577292e-16,
        1,
        0,
        1.1882546004926553e-06,
        6.1340804668758714e-15,
        1.7425321630071267e-07,
        1
      ],
      "name": "RootNode (model correction matrix)"
    },
    {
      "children": [
        3
      ],
      "matrix": [
        1,
        0,
        0,
        0,
        0,
        0,
        1,
        0,
        0,
        -1,
        0,
        0,
        0,
        0,
        0,
        1
      ],
      "name": "Stool.fbx"
    },
    {
      "children": [
        4,
        6,
        8,
        10,
        12,
        14,
        16,
        18,
        20,
        22
      ],
      "name": "RootNode"
    },
    {
      "children": [
        5
      ],
      "matrix": [
        -0.99999999999983347,
        4.7683715832554646e-07,
        -3.2584136956422564e-07,
        0,
        4.7683721141181241e-07,
        0.99999999999987299,
        -1.6292052474919712e-07,
        0,
        3.2584129187762427e-07,
        -1.6292068012245996e-07,
        -0.99999999999993383,
        0,
        0,
        46.871700286865234,
        0,
        1
      ],
      "name": "Leg004"
    },
    {
      "mesh": 0,
      "name": "Leg004_Leg004_mtl_0"
    },
    {
      "children": [
        7
      ],
      "matrix": [
        0.99999999999999289,
        -1.1920928244535305e-07,
        -7.2994633721106177e-24,
        0,
        -1.1920928244535305e-07,
        -0.99999999999999289,
        -1.1924880316878527e-08,
        0,
        1.4215564185223401e-15,
        1.1924880316878441e-08,
        -1,
        0,
        0,
        46.871700286865234,
        0,
        1
      ],
      "name": "Leg003"
    },
    {
      "mesh": 1,
      "name": "Leg003_Leg003_mtl_0"
    },
    {
      "children": [
        9
      ],
      "matrix": [
        3.1391646715395183e-07,
        0.99999999999995071,
        6.1232339957364628e-17,
        0,
        0.99999999999995071,
        -3.1391646704292953e-07,
        -1.224646799147353e-16,
        0,
        -1.2246466069288944e-16,
        6.1232378401041267e-17,
        -1,
        0,
        0,
        46.871700286865234,
        0,
        1
      ],
      "name": "Leg002"
    },
    {
      "mesh": 2,
      "name": "Leg002_Leg002_mtl_0"
    },
    {
      "children": [
        11
      ],
      "matrix": [
        1,
        0,
        0,
        0,
        0,
        -1,
        -1.1924880316878525e-08,
        0,
        0,
        1.1924880316878525e-08,
        -1,
        0,
        0,
        7.4630622863769531,
        0,
        1
      ],
      "name": "Tube"
    },
    {
      "mesh": 3,
      "name": "Tube_Tube_mtl_0"
    },
    {
      "children": [
        13
      ],
      "matrix": [
        1,
        0,
        0,
        0,
        0,
        -1,
        -1.1924880316878525e-08,
        0,
        0,
        1.1924880316878525e-08,
        -1,
        0,
        0,
        50.865501403808594,
        0,
        1
      ],
      "name": "Seat"
    },
    {
      "mesh": 4,
      "name": "Seat_Seat_mtl_0"
    },
    {
      "children": [
        15
      ],
      "matrix": [
        1,
        0,
        0,
        0,
        0,
        -1,
        -1.1924880316878525e-08,
        0,
        0,
        1.1924880316878525e-08,
        -1,
        0,
        0,
        47.534450531005859,
        0,
        1
      ],
      "name": "remen"
    },
    {
      "mesh": 5,
      "name": "remen_remen_mtl_0"
    },
    {
      "children": [
        17
      ],
      "matrix": [
        1.9470718115588426e-07,
        -0.99999999999998113,
        -6.1232339957366477e-17,
        0,
        -0.99999999999998113,
        -1.9470718126690656e-07,
        -1.2246467991473532e-16,
        0,
        1.2246466799235671e-16,
        6.1232363802117949e-17,
        -1,
        0,
        0,
        46.871700286865234,
        0,
        1
      ],
      "name": "Leg1"
    },
    {
      "mesh": 6,
      "name": "Leg1_Leg1_mtl_0"
    },
    {
      "children": [
        19
      ],
      "matrix": [
        0.99979414759239926,
        -0.020289466232206191,
        -1.2423714357666492e-18,
        0,
        -0.020289466232206191,
        -0.99979414759239926,
        -1.1924880316878525e-08,
        0,
        2.4194945527029143e-10,
        1.1922425551580153e-08,
        -1,
        0,
        0,
        47.493671417236328,
        0,
        1
      ],
      "name": "Klepki_1"
    },
    {
      "mesh": 7,
      "name": "Klepki_1_Klepki_1_mtl_0"
    },
    {
      "children": [
        21
      ],
      "matrix": [
        1,
        0,
        0,
        0,
        0,
        8.6625152551089712e-07,
        0.99999999999962474,
        0,
        0,
        -0.99999999999962474,
        8.6625152551089712e-07,
        0,
        0.12110519409179688,
        43.539249420166016,
        0,
        1
      ],
      "name": "Connect"
    },
    {
      "mesh": 8,
      "name": "Connect_Connect_mtl_0"
    },
    {
      "children": [
        23
      ],
      "matrix": [
        1,
        0,
        0,
        0,
        0,
        -1,
        -1.1924880316878525e-08,
        0,
        0,
        1.1924880316878525e-08,
        -1,
        0,
        0,
        44.196430206298828,
        0,
        1
      ],
      "name": "base"
    },
    {
      "mesh": 9,
      "name": "base_base_mtl_0"
    }
  ],
  "samplers": [
    {
      "magFilter": 9729,
      "minFilter": 9987,
      "wrapS": 10497,
      "wrapT": 10497
    }
  ],
  "scene": 0,
  "scenes": [
    {
      "name": "OSG_Scene",
      "nodes": [
        0
      ]
    }
  ],
  "textures": [
    {
      "sampler": 0,
      "source": 0
    },
    {
      "sampler": 0,
      "source": 1
    },
    {
      "sampler": 0,
      "source": 2
    },
    {
      "sampler": 0,
      "source": 3
    },
    {
      "sampler": 0,
      "source": 4
    },
    {
      "sampler": 0,
      "source": 5
    },
    {
      "sampler": 0,
      "source": 6
    },
    {
      "sampler": 0,
      "source": 7
    },
    {
      "sampler": 0,
      "source": 8
    },
    {
      "sampler": 0,
      "source": 9
    }
  ]
}

